<svg xmlns="http://www.w3.org/2000/svg" width="256" height="256" viewBox="0 0 100 100"><rect width="100" height="100" rx="0" fill="#242424"></rect><path fill="#fdf5f1" d="M25.48 107.12L25.48 107.12Q24.63 107.12 23.87 106.10Q23.10 105.08 23.10 103.21L23.10 103.21Q23.10 83.49 22.17 64.62Q21.23 45.75 20.04 26.54L20.04 26.54Q19.87 24.50 18.60 25.01Q17.32 25.52 16.30 27.73L16.30 27.73Q10.18 39.97 4.66 52.21Q-0.87 64.45-5.46 76.86L-5.46 76.86Q-8.01 84-8.52 88.68Q-9.03 93.35-7.50 95.82Q-5.97 98.28-2.57 99.13L-2.57 99.13Q-1.04 99.47 0.32 100.24Q1.68 101.00 1.17 102.70L1.17 102.70Q0.83 103.89-0.78 104.49Q-2.40 105.08-3.93 105.08L-3.93 105.08Q-8.35 105.08-10.98 104.91Q-13.62 104.74-15.66 104.66Q-17.70 104.57-21.44 104.57L-21.44 104.57Q-25.18 104.57-29.17 104.74Q-33.17 104.91-36.23 105.17Q-39.29 105.42-40.14 105.42L-40.14 105.42Q-44.22 105.42-43.54 102.87L-43.54 102.87Q-43.03 101.51-41.33 101.00Q-39.63 100.49-37.76 99.81L-37.76 99.81Q-33.51 98.45-30.19 96.58Q-26.88 94.71-23.48 90.46Q-20.08 86.21-16.00 77.88L-16.00 77.88L12.73 19.57Q15.96 13.11 16.22 9.20Q16.47 5.29 13.07 2.83Q9.67 0.36 1.68-1.34L1.68-1.34Q-0.53-1.85-1.72-2.36Q-2.91-2.87-2.91-4.57L-2.91-4.57Q-2.91-6.27-0.87-6.69Q1.17-7.12 3.21-7.12L3.21-7.12Q6.61-7.12 12.73-6.95Q18.85-6.78 25.23-6.53Q31.60-6.27 35.85-6.27L35.85-6.27Q40.10-6.27 41.38-3.80Q42.65-1.34 42.48 2.40Q42.31 6.14 42.31 10.39L42.31 10.39L44.69 67.85Q44.86 69.72 45.80 70.06Q46.73 70.40 48.26 68.70L48.26 68.70Q57.61 59.18 66.54 48.22Q75.46 37.25 83.37 26.54Q91.27 15.83 97.39 7.33L97.39 7.33Q99.60 3.76 101.30 1.13Q103.00-1.51 104.36-3.55L104.36-3.55Q105.72-5.76 107.93-5.76L107.93-5.76L115.92-5.76Q120.34-5.76 124.68-6.10Q129.01-6.44 132.84-6.78Q136.66-7.12 139.38-7.12L139.38-7.12Q141.25-7.12 142.44-6.61Q143.63-6.10 143.63-4.74L143.63-4.74Q143.63-3.21 141.42-2.02Q139.21-0.83 134.79 0.36L134.79 0.36Q130.54 1.21 127.82 3.08Q125.10 4.95 123.40 8.01Q121.70 11.07 120.34 15.49L120.34 15.49Q115.75 32.83 111.67 50.68Q107.59 68.53 104.02 86.38L104.02 86.38Q102.83 91.82 105.30 94.88Q107.76 97.94 112.52 99.13L112.52 99.13Q114.05 99.64 114.99 100.32Q115.92 101.00 115.41 102.70L115.41 102.70Q115.24 103.72 113.97 104.40Q112.69 105.08 111.16 105.08L111.16 105.08Q107.59 105.08 102.75 104.91Q97.90 104.74 93.23 104.49Q88.55 104.23 85.15 104.23L85.15 104.23Q81.58 104.23 77.42 104.49Q73.25 104.74 68.92 105.00Q64.58 105.25 60.67 105.25L60.67 105.25Q59.31 105.25 58.38 104.57Q57.44 103.89 57.61 102.87L57.61 102.87Q58.12 101.34 59.48 100.41Q60.84 99.47 62.71 99.13L62.71 99.13Q69.51 97.43 72.49 95.31Q75.46 93.18 76.99 88.08L76.99 88.08Q80.22 77.88 82.77 68.36Q85.32 58.84 87.70 49.32Q90.08 39.80 92.46 29.94L92.46 29.94Q92.80 29.09 92.21 29.09Q91.61 29.09 90.59 30.28L90.59 30.28L46.90 80.77L29.90 103.72Q29.05 104.91 27.78 106.02Q26.50 107.12 25.48 107.12Z"></path></svg>